<svg xmlns="http://www.w3.org/2000/svg" width="1920" height="1080" viewBox="0 0 1920 1080">
  <rect width="1920" height="1080" fill="#09090b"/>
  <g opacity="0.1" fill="none" stroke="#0ea5e9" stroke-width="1.2">
    <path d="M0,900 L200,600 L350,750 L500,500 L700,650 L900,350 L1100,550 L1300,400 L1500,600 L1700,450 L1920,700"/>
    <path d="M0,950 L300,700 L500,800 L700,600 L950,750 L1150,500 L1350,650 L1550,550 L1750,700 L1920,600"/>
  </g>
  <g opacity="0.06" fill="none" stroke="#06b6d4" stroke-width="0.6">
    <path d="M0,850 L150,650 L300,780 L450,550 L600,700 L800,400 L1000,600 L1200,450 L1400,620 L1600,500 L1920,750"/>
    <path d="M0,980 L250,750 L400,850 L600,680 L850,800 L1050,550 L1250,700 L1450,600 L1650,750 L1920,650"/>
  </g>
</svg>
