<svg xmlns="http://www.w3.org/2000/svg" width="1920" height="1080" viewBox="0 0 1920 1080">
  <rect width="1920" height="1080" fill="#f8fafc"/>
  <g opacity="0.12" stroke="#0284c7" stroke-width="1" fill="none">
    <path d="M0,200 Q480,150 960,220 T1920,180"/>
    <path d="M0,280 Q480,230 960,300 T1920,260"/>
    <path d="M0,360 Q480,310 960,380 T1920,340"/>
    <path d="M0,440 Q480,390 960,460 T1920,420"/>
    <path d="M0,520 Q480,470 960,540 T1920,500"/>
    <path d="M0,600 Q480,550 960,620 T1920,580"/>
    <path d="M0,680 Q480,630 960,700 T1920,660"/>
    <path d="M0,760 Q480,710 960,780 T1920,740"/>
    <path d="M0,840 Q480,790 960,860 T1920,820"/>
    <path d="M0,920 Q480,870 960,940 T1920,900"/>
  </g>
  <g opacity="0.06" stroke="#06b6d4" stroke-width="0.5" fill="none">
    <path d="M0,240 Q320,200 640,260 Q960,320 1280,240 Q1600,160 1920,220"/>
    <path d="M0,400 Q320,360 640,420 Q960,480 1280,400 Q1600,320 1920,380"/>
    <path d="M0,560 Q320,520 640,580 Q960,640 1280,560 Q1600,480 1920,540"/>
    <path d="M0,720 Q320,680 640,740 Q960,800 1280,720 Q1600,640 1920,700"/>
    <path d="M0,880 Q320,840 640,900 Q960,960 1280,880 Q1600,800 1920,860"/>
  </g>
</svg>
