<svg xmlns="http://www.w3.org/2000/svg" width="1920" height="1080" viewBox="0 0 1920 1080">
  <rect width="1920" height="1080" fill="#09090b"/>
  <g opacity="0.12" stroke="#0ea5e9" stroke-width="1.5" fill="none">
    <path d="M-100,300 C200,200 400,400 700,300 S1200,200 1500,300 S1800,400 2020,300"/>
    <path d="M-100,450 C200,350 400,550 700,450 S1200,350 1500,450 S1800,550 2020,450"/>
    <path d="M-100,600 C200,500 400,700 700,600 S1200,500 1500,600 S1800,700 2020,600"/>
    <path d="M-100,750 C200,650 400,850 700,750 S1200,650 1500,750 S1800,850 2020,750"/>
  </g>
  <g opacity="0.06" stroke="#06b6d4" stroke-width="0.8" fill="none">
    <path d="M-100,375 C200,275 400,475 700,375 S1200,275 1500,375 S1800,475 2020,375"/>
    <path d="M-100,525 C200,425 400,625 700,525 S1200,425 1500,525 S1800,625 2020,525"/>
    <path d="M-100,675 C200,575 400,775 700,675 S1200,575 1500,675 S1800,775 2020,675"/>
  </g>
</svg>
