<svg xmlns="http://www.w3.org/2000/svg" viewBox="0 0 100 100">
  <!-- MuleCube Icon - Amber/Orange theme -->
  <!-- Colors: Navy #1a2e3f, Amber #f59e0b -->
  
  <g transform="translate(50, 55)">
    <!-- Back layer cubes first -->
    <!-- Back-left-bottom (0,0,0) -->
    <polygon fill="#3a5570" points="0,0 -20,12 -20,-12 0,-24"/>
    <polygon fill="#1a2e3f" points="20,12 0,24 0,0 20,-12"/>
    <polygon fill="#2a4258" points="0,-24 20,-12 0,0 -20,-12"/>
    
    <!-- Back-right-bottom (1,0,0) -->
    <polygon fill="#1a2e3f" points="40,24 20,36 20,12 40,0"/>
    <polygon fill="#2a4258" points="20,-12 40,0 20,12 0,0"/>
    
    <!-- Front-left-bottom (0,1,0) -->
    <polygon fill="#3a5570" points="-20,12 -40,24 -40,0 -20,-12"/>
    <polygon fill="#2a4258" points="-20,-12 0,0 -20,12 -40,0"/>
    
    <!-- Center-bottom (1,1,0) -->
    <polygon fill="#3a5570" points="0,24 -20,36 -20,12 0,0"/>
    <polygon fill="#1a2e3f" points="20,36 0,48 0,24 20,12"/>
    <polygon fill="#2a4258" points="0,0 20,12 0,24 -20,12"/>
    
    <!-- Back-left-top (0,0,1) -->
    <polygon fill="#3a5570" points="0,-24 -20,-12 -20,-36 0,-48"/>
    <polygon fill="#1a2e3f" points="20,-12 0,0 0,-24 20,-36"/>
    <polygon fill="#2a4258" points="0,-48 20,-36 0,-24 -20,-36"/>
    
    <!-- Back-right-top (1,0,1) -->
    <polygon fill="#1a2e3f" points="40,0 20,12 20,-12 40,-24"/>
    <polygon fill="#2a4258" points="20,-36 40,-24 20,-12 0,-24"/>
    
    <!-- Front-left-top (0,1,1) -->
    <polygon fill="#3a5570" points="-20,-12 -40,0 -40,-24 -20,-36"/>
    <polygon fill="#2a4258" points="-20,-36 0,-24 -20,-12 -40,-24"/>
    
    <!-- Floating amber cube (offset from 1,1,1 position) -->
    <g transform="translate(-3, -8)">
      <polygon fill="#f59e0b" points="0,-12 -20,0 -20,-24 0,-36"/>
      <polygon fill="#d97706" points="20,0 0,12 0,-12 20,-24"/>
      <polygon fill="#fbbf24" points="0,-36 20,-24 0,-12 -20,-24"/>
    </g>
  </g>
</svg>
